<?xml version="1.0" encoding="UTF-8"?>
<svg width="48" height="48" version="1.1" xmlns="http://www.w3.org/2000/svg"><circle cx="24" cy="24" r="12" fill="none" stroke="#fff" stroke-linecap="round" stroke-linejoin="round" stroke-opacity=".75294" stroke-width="2"/><circle cx="24" cy="32" r="1" fill="#fff" fill-opacity=".75294"/><g aria-label="?"><path d="m23.843 15.508c1.457 0 2.7764.6435 3.9581 1.9305.82562 1.0361 1.2384 2.1693 1.2384 3.3996 0 1.5298-.68802 2.8937-2.0641 4.0917-1.4165.77706-2.1248 1.9143-2.1248 3.4118-.08904.60708-.39258.91061-.91061.91061-.58279-.12951-.93711-.39752-.93711-.78605v-.47211c0-1.9103.97321-3.4976 2.9968-4.7442.76087-.75277 1.117-1.6791 1.117-2.7071 0-1.3032-.5442-2.0916-1.9202-2.8687-.61517-.18617-1.1408-.26128-1.5051-.26128-1.3518 0-2.1564.70242-2.9173 2.1432l-.38175 1.444c-.25902.33187-.69781.53022-.95683.53022-.61517-.12951-.92276-.42091-.92276-.87419 0-1.6512.81348-3.092 2.4404-4.3224.9956-.55042 1.9588-.82562 2.8897-.82562z" fill="#fff" fill-opacity=".75294" stroke-width=".77706px"/></g></svg>
