<?xml version="1.0" encoding="UTF-8"?>
<svg width="48" height="48" version="1.1" xmlns="http://www.w3.org/2000/svg"><path d="m24 12a12 12 0 0 1 11.087 7.4078 12 12 0 0 1-2.6013 13.077 12 12 0 0 1-13.077 2.6013 12 12 0 0 1-7.4078-11.087" fill="none" stroke="#fff" stroke-linecap="round" stroke-linejoin="round" stroke-opacity=".75294" stroke-width="2"/><path d="m15.988 12-2.9668.033203a1.0001 1.0001 0 0 0-.001953 0 1.0001 1.0001 0 0 0-.11523.007813 1.0001 1.0001 0 0 0-.15234.033203 1.0001 1.0001 0 0 0-.35547.18945 1.0001 1.0001 0 0 0-.015625.011719 1.0001 1.0001 0 0 0-.001953.001953 1.0001 1.0001 0 0 0-.001953.001953 1.0001 1.0001 0 0 0-.068359.066406 1.0001 1.0001 0 0 0-.035156.041016 1.0001 1.0001 0 0 0-.03125.033203 1.0001 1.0001 0 0 0 0 .001953 1.0001 1.0001 0 0 0-.056641.080078 1.0001 1.0001 0 0 0-.023438.041016 1.0001 1.0001 0 0 0-.02539.046875 1.0001 1.0001 0 0 0 0 .001953 1.0001 1.0001 0 0 0-.039063.089844 1.0001 1.0001 0 0 0-.021484.066406 1.0001 1.0001 0 0 0-.009766.029297 1.0001 1.0001 0 0 0 0 .001953 1.0001 1.0001 0 0 0-.021484.095703 1.0001 1.0001 0 0 0 0 .001953 1.0001 1.0001 0 0 0-.009766.097656 1.0001 1.0001 0 0 0-.001953.046875l-.033203 2.9668a1.0001 1.0001 0 1 0 2 .023438l.007812-.58984 9.2852 9.2852a1.0001 1.0001 0 1 0 1.4141-1.4141l-9.2852-9.2852.58984-.007812a1.0001 1.0001 0 1 0-.023438-2z" color="#000000" color-rendering="auto" dominant-baseline="auto" fill="#fff" fill-opacity=".75294" fill-rule="evenodd" image-rendering="auto" shape-rendering="auto" solid-color="#000000" style="font-feature-settings:normal;font-variant-alternates:normal;font-variant-caps:normal;font-variant-ligatures:normal;font-variant-numeric:normal;font-variant-position:normal;isolation:auto;mix-blend-mode:normal;shape-padding:0;text-decoration-color:#000000;text-decoration-line:none;text-decoration-style:solid;text-indent:0;text-orientation:mixed;text-transform:none;white-space:normal"/></svg>
