<?xml version="1.0" encoding="UTF-8"?>
<svg width="48" height="48" version="1.1" xmlns="http://www.w3.org/2000/svg"><path transform="matrix(0 .048872 .048872 0 11.489 3.6692)" d="m576-10c26.667 0 49.333 9.3334 68 28 18.667 18.667 28 41.333 28 68v340c0 26.667-9.3334 49.333-28 68s-41.333 28-68 28h-84c-3.3333 0-6.1667-1.1667-8.5-3.5s-3.5-5.1667-3.5-8.5v-24c0-3.3333 1.1667-6.1667 3.5-8.5s5.1667-3.5 8.5-3.5h84c13.333 0 24.667-4.6667 34-14s14-20.667 14-34v-340c0-13.333-4.6667-24.667-14-34s-20.667-14-34-14h-84c-3.3333 0-6.1667-1.1667-8.5-3.5s-3.5-5.1667-3.5-8.5v-24c0-3.3333 1.1667-6.1667 3.5-8.5s5.1667-3.5 8.5-3.5zm-240 90c3.3333 0 6 1 8 3l165 164c2 2.6667 3 5.6667 3 9s-1 6-3 8l-165 164c-2 2.6667-4.6667 4-8 4s-6.3333-1.3333-9-4l-19-19c-2.6667-2.6667-4-5.6667-4-9s1.3333-6 4-8l113-110h-249c-3.3333 0-6.1667-1.1667-8.5-3.5s-3.5-5.1667-3.5-8.5v-28c0-3.3333 1.1667-6.1667 3.5-8.5s5.1667-3.5 8.5-3.5h249l-113-110c-2.6667-2-4-4.6667-4-8s1.3333-6.3333 4-9l19-20v1c2.6667-2.6667 5.6667-4 9-4z" fill="#fff" fill-opacity=".75"/></svg>
