<?xml version="1.0" encoding="UTF-8"?>
<svg width="48" height="48" version="1.1" xmlns="http://www.w3.org/2000/svg"><path transform="matrix(.045139 0 0 .045139 11 12.444)" d="m273 359q-40-4-70.5-29t-43.5-62-3-76zm15 33q-76 0-139.5-37t-100.5-99q33-56 88-92l-27-39q-64 42-102 107-7 11-7 24t7 24q43 73 117 116 75 44 164 44 20 0 40-2l-32-46zm281-112q-25 43-61.5 76t-81.5 54l48 69q3 4 2 8.5t-5 7.5l-21 15q-4 3-9 2t-7-5l-332-474q-3-4-2-8.5t5-7.5l21-15q4-3 9-2t7 5l56 79q44-12 90-12 89 0 164 44 74 43 117 116 7 11 7 24t-7 24zm-41-24q-34-57-91-93t-125-42q-16 16-16 39t16.5 39.5 39.5 16.5 39.5-16.5 16.5-39.5q23 43 13 92t-50 80l27 38q41-18 74.5-47t55.5-67z" fill="#fff" fill-opacity=".75"/></svg>
