<?xml version="1.0" encoding="UTF-8"?>
<svg width="48" height="48" version="1.1" xmlns="http://www.w3.org/2000/svg"><path transform="matrix(.051181 0 0 .051181 10.795 10.898)" d="m500 124h-360q-5 0-8.5-3.5t-3.5-8.5v-32q0-5 3.5-8.5t8.5-3.5h360q5 0 8.5 3.5t3.5 8.5v32q0 5-3.5 8.5t-8.5 3.5zm12 148v-32q0-5-3.5-8.5t-8.5-3.5h-360q-5 0-8.5 3.5t-3.5 8.5v32q0 5 3.5 8.5t8.5 3.5h360q5 0 8.5-3.5t3.5-8.5zm0 160v-32q0-5-3.5-8.5t-8.5-3.5h-360q-5 0-8.5 3.5t-3.5 8.5v32q0 5 3.5 8.5t8.5 3.5h360q5 0 8.5-3.5t3.5-8.5zm-420-304v-64q0-5-3.5-8.5t-8.5-3.5h-64q-5 0-8.5 3.5t-3.5 8.5v64q0 5 3.5 8.5t8.5 3.5h64q5 0 8.5-3.5t3.5-8.5zm0 160v-64q0-5-3.5-8.5t-8.5-3.5h-64q-5 0-8.5 3.5t-3.5 8.5v64q0 5 3.5 8.5t8.5 3.5h64q5 0 8.5-3.5t3.5-8.5zm0 160v-64q0-5-3.5-8.5t-8.5-3.5h-64q-5 0-8.5 3.5t-3.5 8.5v64q0 5 3.5 8.5t8.5 3.5h64q5 0 8.5-3.5t3.5-8.5z" fill="#fff" fill-opacity=".75"/></svg>
