<?xml version="1.0" encoding="UTF-8"?>
<svg width="48" height="48" version="1.1" xmlns="http://www.w3.org/2000/svg"><path transform="matrix(.050781 0 0 .050781 11 11)" d="m96 64h84q5 0 8.5 3.5t3.5 8.5v24q0 5-3.5 8.5t-8.5 3.5h-84q-20 0-34 14t-14 34v192q0 20 14 34t34 14h84q5 0 8.5 3.5t3.5 8.5v24q0 5-3.5 8.5t-8.5 3.5h-84q-40 0-68-28t-28-68v-192q0-40 28-68t68-28zm231 19-19 20q-4 4-4 9t4 8l113 110h-249q-5 0-8.5 3.5t-3.5 8.5v28q0 5 3.5 8.5t8.5 3.5h249l-113 110q-4 3-4 8t4 9l19 19q4 4 9 4t8-4l165-164q3-3 3-8t-3-9l-165-164q-3-3-8-3t-9 4z" fill="#fff" fill-opacity=".75"/></svg>
