<?xml version="1.0" encoding="UTF-8" standalone="no"?>
<svg width="128" height="128" version="1.1" viewBox="0 0 128 128" id="svg20" sodipodi:docname="os_linux_2.svg" inkscape:version="1.2.1 (9c6d41e410, 2022-07-14)" xmlns:inkscape="http://www.inkscape.org/namespaces/inkscape" xmlns:sodipodi="http://sodipodi.sourceforge.net/DTD/sodipodi-0.dtd" xmlns="http://www.w3.org/2000/svg" xmlns:svg="http://www.w3.org/2000/svg">
  <sodipodi:namedview id="namedview22" pagecolor="#ffffff" bordercolor="#666666" borderopacity="1.0" inkscape:showpageshadow="2" inkscape:pageopacity="0.0" inkscape:pagecheckerboard="0" inkscape:deskcolor="#d1d1d1" showgrid="false" inkscape:current-layer="svg20" />
  <defs id="defs12">
    <linearGradient id="linearGradient2500" x1="64" x2="64" y1="4" y2="124" gradientUnits="userSpaceOnUse">
      <stop stop-color="#12c1fb" offset="0" id="stop2" style="stop-color:#9bcf60;stop-opacity:1;" />
      <stop stop-color="#1568f0" offset="1" id="stop4" style="stop-color:#50852f;stop-opacity:1;" />
    </linearGradient>
    <linearGradient id="linearGradient3788" x1="64" x2="64" y1="4" y2="124" gradientUnits="userSpaceOnUse">
      <stop stop-color="#08b4ea" offset="0" id="stop7" style="stop-color:#75c52c;stop-opacity:1;" />
      <stop stop-color="#0031c4" offset="1" id="stop9" style="stop-color:#355c10;stop-opacity:1;" />
    </linearGradient>
    <filter style="color-interpolation-filters:sRGB;" inkscape:label="Drop Shadow" id="filter7461" x="-0.026729877" y="-0.028151386" width="1.0534598" height="1.0563028">
      <feFlood flood-opacity="0.5" flood-color="rgb(0,0,0)" result="flood" id="feFlood7451" />
      <feComposite in="flood" in2="SourceGraphic" operator="in" result="composite1" id="feComposite7453" />
      <feGaussianBlur in="composite1" stdDeviation="1" result="blur" id="feGaussianBlur7455" />
      <feOffset dx="0" dy="0" result="offset" id="feOffset7457" />
      <feComposite in="SourceGraphic" in2="offset" operator="over" result="composite2" id="feComposite7459" />
    </filter>
    <filter style="color-interpolation-filters:sRGB;" inkscape:label="Drop Shadow" id="filter11594" x="-0.026729463" y="-0.028150797" width="1.0534589" height="1.0563016">
      <feFlood flood-opacity="0.74902" flood-color="rgb(0,0,0)" result="flood" id="feFlood11584" />
      <feComposite in="flood" in2="SourceGraphic" operator="in" result="composite1" id="feComposite11586" />
      <feGaussianBlur in="composite1" stdDeviation="1" result="blur" id="feGaussianBlur11588" />
      <feOffset dx="0" dy="0" result="offset" id="feOffset11590" />
      <feComposite in="SourceGraphic" in2="offset" operator="over" result="composite2" id="feComposite11592" />
    </filter>
  </defs>
  <g fill-rule="evenodd" stroke-linecap="square" stroke-linejoin="bevel" stroke-width="4.5" id="g18">
    <circle cx="64" cy="64" r="60" fill="url(#linearGradient2500)" id="circle14" />
    <circle cx="64" cy="64" r="57.75" fill="none" stroke="url(#linearGradient3788)" id="circle16" />
  </g>
  <g id="g7329" transform="matrix(0.74005807,0,0,0.74005807,16.636187,16.597214)" style="stroke-width:0.99992153;stroke-dasharray:none;stroke:none;filter:url(#filter11594)">
    <path id="path3161" style="fill:#ffffff;fill-opacity:1;fill-rule:evenodd;stroke:none;stroke-width:10.89086101;stroke-linecap:butt;stroke-linejoin:miter;stroke-miterlimit:4;stroke-dasharray:none;stroke-dashoffset:0;stroke-opacity:0.25;paint-order:stroke fill markers" d="M 511.43367 12.562553 C 438.09678 12.562553 371.65112 42.4822 323.55712 90.834868 C 275.46302 139.18752 248.56172 212.56944 248.56172 212.56944 C 248.56172 212.56944 233.20179 270.78966 233.55689 317.5745 C 233.90459 363.3765 222.85447 404.01313 131.42633 475.44139 C 39.998108 546.86968 25.70265 586.85656 25.70265 586.85656 C 25.70265 586.85656 3.9221386 635.07854 66.779087 623.65001 C 138.2073 576.50466 177.13069 566.85012 177.13069 566.85012 C 177.13069 566.85012 173.74505 583.48936 174.28495 601.14276 C 176.48845 673.19469 203.06504 739.22918 246.03217 792.49745 C 187.45504 811.90528 146.54614 854.17272 146.54614 903.48144 C 146.54614 920.38181 151.3295 926.4872 159.97 941.13723 L 474.4965 941.13723 C 483.13699 926.4872 487.89161 920.38181 487.89161 903.48144 C 487.89001 835.88069 411.44605 780.99949 317.23325 780.99949 C 299.43562 780.99949 282.60473 783.51911 266.46978 787.1509 C 251.12181 747.8604 240.13947 705.86849 240.13947 660.01228 C 240.13947 545.90072 293.03133 445.94812 372.07848 390.87395 A 94.236538 119.30669 0 0 1 314.58872 281.55716 A 94.236538 119.30669 0 0 1 408.81444 162.23716 A 94.236538 119.30669 0 0 1 503.06891 281.55716 A 94.236538 119.30669 0 0 1 500.94179 290.15188 A 26.998117 39.532955 0 0 0 474.32403 252.61107 A 26.998117 39.532955 0 0 0 447.33258 292.16402 A 26.998117 39.532955 0 0 0 474.32403 331.68824 A 26.998117 39.532955 0 0 0 494.35921 316.82713 A 94.236538 119.30669 0 0 1 486.8568 347.15298 C 489.2404 346.8915 491.70062 346.94565 494.10051 346.75056 C 479.32415 348.33763 464.786 352.17043 443.96943 361.03676 C 414.55266 373.56614 419.45005 398.60632 419.45005 398.60632 C 419.45005 398.60632 421.64064 410.6031 457.59451 448.19124 C 493.54837 485.77938 513.15836 491.76849 513.15836 491.76849 L 522.67292 491.59602 C 522.67292 491.59602 532.99832 480.14538 568.95218 442.55725 C 592.92146 415.31947 600.54281 397.34155 600.54281 397.34155 C 600.54281 397.34155 605.45558 379.38598 582.0311 360.86429 C 557.92659 348.89603 543.0788 346.3714 526.86967 345.85946 A 101.96648 87.503034 0 0 1 519.396 327.40525 A 26.998117 39.532955 0 0 0 532.3312 332.52184 A 26.998117 39.532955 0 0 0 559.35139 292.96888 A 26.998117 39.532955 0 0 0 532.3312 253.44467 A 26.998117 39.532955 0 0 0 521.6381 257.64142 A 101.96648 87.503034 0 0 1 607.03915 204.52088 A 101.96648 87.503034 0 0 1 708.99725 292.0203 A 101.96648 87.503034 0 0 1 631.06987 376.90394 C 721.69778 427.59796 784.61204 534.66858 785.86106 658.17261 C 785.86106 704.06319 774.80722 746.51515 759.41577 786.28855 C 744.42921 783.19842 728.9271 780.99949 712.56161 780.99949 C 618.34771 780.99949 541.8745 835.87996 541.8745 903.48144 C 541.8745 920.38181 546.65787 926.4872 555.29836 941.13723 L 869.82486 941.13723 C 878.46546 926.4872 883.24872 920.38181 883.24872 903.48144 C 883.24755 853.77648 841.71979 811.13864 782.38293 791.95129 C 825.01804 738.92733 850.71731 673.0331 851.42814 601.14276 C 851.63484 580.24242 844.52937 564.00438 844.52937 564.00438 C 844.52937 564.00438 884.51621 572.56658 955.94453 623.99495 C 1018.8013 635.42347 995.95741 584.01081 995.95741 584.01081 C 995.95741 584.01081 981.66194 543.99516 890.23373 472.56691 C 798.80549 401.13862 801.25521 377.0388 791.29385 332.92427 C 781.25529 288.46773 767.3781 229.70139 767.3781 229.70139 C 767.3781 229.70139 746.26026 137.42642 698.24666 89.713818 C 650.23316 42.001209 584.22659 12.562553 511.43367 12.562553 z M 505.79967 290.46808 A 26.998117 39.532955 0 0 0 505.3685 292.79641 A 101.96648 87.503034 0 0 1 505.05231 292.0203 A 101.96648 87.503034 0 0 1 505.79967 290.46808 z " transform="matrix(0.0918129,0,0,0.0918129,17.08087,20.271821)" />
  </g>
</svg>
